<?xml version="1.0" encoding="utf-8"?>
<!-- Generator: Adobe Illustrator 24.0.1, SVG Export Plug-In . SVG Version: 6.00 Build 0)  -->
<svg version="1.1" id="Camada_1" xmlns="http://www.w3.org/2000/svg" xmlns:xlink="http://www.w3.org/1999/xlink" x="554px" y="674px"
	 viewBox="0 0 554 674" style="enable-background:new 0 0 554 674;" xml:space="preserve">
<style type="text/css">
	.st0{fill:#FFFFFF;}
	.st1{fill:#008484;}
	.st2{fill:#00D1D3;}
	.st3{fill:#95D84E;}
	.st4{fill:#A0CE69;}
	.st5{fill:#89B04E;}
	.st6{opacity:0.1;fill:#27275F;}
	.st7{opacity:0.46;fill:#009995;}
	.st8{fill:#2F387F;}
	.st9{fill:#AA4A3E;}
	.st10{fill:#FFBA8C;}
	.st11{opacity:0.54;fill:#FF9E8F;}
	.st12{opacity:0.5;}
	.st13{fill:#222630;}
	.st14{opacity:0.31;fill:#66C6D2;}
	.st15{fill:#BE5950;}
	.st16{fill:#1F3561;}
	.st17{opacity:0.26;fill:#FF9E8F;}
	.st18{fill:#A33333;}
	.st19{fill:#223C7A;}
	.st20{fill:#BA4444;}
	.st21{fill:#FFD680;}
	.st22{fill:#892424;}
	
		.st23{fill:none;stroke:#2F387F;stroke-width:2;stroke-linecap:round;stroke-linejoin:round;stroke-miterlimit:10;stroke-dasharray:0,5;}
	
		.st24{fill:none;stroke:#FFFFFF;stroke-width:2;stroke-linecap:round;stroke-linejoin:round;stroke-miterlimit:10;stroke-dasharray:0,5;}
	.st25{fill:#FFF081;}
	.st26{fill:#45539E;}
	.st27{opacity:0.26;fill:#2F387F;}
	.st28{fill:#FF5E82;}
	.st29{fill:#FFACAC;}
	.st30{fill:#BCE4E8;}
	.st31{fill:#FBB263;}
	.st32{fill:#FDCF7D;}
	.st33{fill:#D72B5E;}
</style>
<g>
	<path class="st0" d="M340.6,409.9l122.7-1.9c0,0-22.3-1-28-9.2c-5.7-8.3-15.3-9.9-22.8-1.6c0,0-4.6-15.9-18-16.3
		c-13.4-0.3-18.2,16.9-18.2,16.9s-0.3-13.1-4.5-13.4c-4.1-0.3-5.4,9.2-5.4,9.2s1.3-31.9-16.9-30.6
		C331.4,364.4,340.6,409.9,340.6,409.9z"/>
	<g>
		<g>
			<path class="st1" d="M397.3,430.6c0,2.7-0.1,5.5-0.3,8.2c-1.5,21.7-9.3,41.7-21.4,58.2c-17.1,23.4-43.1,40-73.1,44.7
				c-5.8,0.9-11.7,1.4-17.8,1.4c-7.7,0-15.1-0.8-22.4-2.2c-7.8-1.6-15.4-4-22.6-7.1c-37.5-16.3-64.4-52.6-67.3-95.4
				c-0.2-2.6-0.3-5.2-0.3-7.8c0-10,1.3-19.7,3.7-28.9c0,0,0,0,0,0c10.3-39,41-69.6,79.9-79.9c9.2-2.4,18.9-3.7,28.8-3.7
				c5.3,0,10.5,0.4,15.5,1.1c3,0.4,6,1,9,1.6c11.7,2.6,22.7,7,32.7,12.9c20.9,12.3,37.4,31.2,46.7,53.8
				C394.3,400.9,397.3,415.4,397.3,430.6z"/>
			<g>
				<path class="st2" d="M348.2,447.8c-4,2.4-8.7,2.8-12.9,0.5c0,0-0.1,0,0,0.1c3.9,2.6,9.2,2.8,13.1-0.2
					C348.6,447.9,348.4,447.6,348.2,447.8z"/>
				<path class="st2" d="M350,449.6c-0.9,0.4-1.7,1-2.6,1.4c-1,0.5-2,0.8-3,1.2c-0.1,0-0.1,0.1,0,0.1c2-0.1,4.5-1,5.9-2.3
					C350.6,449.8,350.3,449.4,350,449.6z"/>
				<path class="st2" d="M337.1,402.3c-3.7,0.7-6.8,0.6-10.3-1c-0.3-0.1-0.7,0.2-0.4,0.5c3,2.5,7.6,3.2,11,1.4
					C338,402.8,337.6,402.2,337.1,402.3z"/>
				<path class="st2" d="M338.7,405.3c-0.6,0.2-1.1,0.6-1.7,0.8c-0.2,0-0.1,0.3,0.1,0.2c0.6-0.1,1.3-0.4,1.8-0.8
					C339,405.4,338.9,405.3,338.7,405.3z"/>
				<path class="st2" d="M290.7,413.7c-0.4-1.1-1.1-2.1-1.4-3.2c-0.3-1.3-0.2-2.5-0.2-3.8c0-0.2-0.3-0.3-0.4-0.1
					c-1.2,2.2-0.8,5.9,1.2,7.6C290.2,414.3,290.8,414.1,290.7,413.7z"/>
				<path class="st2" d="M272.2,384.6c-2.1-1.7-4.7-2.7-6.9-4.2c-2.5-1.7-4.3-4.2-6.3-6.5c-0.2-0.2-0.5,0.1-0.3,0.3
					c3.1,4.8,7.2,9.6,13.1,11.1C272.2,385.4,272.6,384.9,272.2,384.6z"/>
				<path class="st2" d="M274.6,385.1c-0.8,0-0.8,1.2,0,1.2C275.3,386.3,275.3,385.1,274.6,385.1z"/>
				<path class="st2" d="M233.1,445.5c-2.5,1.4-4.7,3.2-7.4,4.2c-2.4,0.9-4.9,1.3-7.4,1.9c0,0,0,0.1,0,0.1
					c5.1,0.7,11.9-1.7,15.2-5.6C233.8,445.8,233.5,445.3,233.1,445.5z"/>
				<path class="st2" d="M235,442.1c-0.7,0-0.7,1.1,0,1.1C235.7,443.3,235.7,442.1,235,442.1z"/>
				<path class="st2" d="M204.3,444c-1.9-2.2-5-4.1-7.9-4.6c-0.4-0.1-0.7,0.4-0.3,0.7c1.3,0.8,2.7,1.3,4,2c1.3,0.7,2.5,1.6,3.8,2.3
					C204.3,444.5,204.5,444.2,204.3,444z"/>
				<path class="st2" d="M302.9,526.1c-3.5,1.1-5,7.2-5.2,10.4c0,0.5,0.7,0.7,1,0.3c0.8-1.7,1.1-3.7,1.7-5.5
					c0.6-1.9,1.6-3.3,2.8-4.9C303.1,526.2,303,526,302.9,526.1z"/>
				<path class="st2" d="M305.4,523.7c-0.9,0-0.9,1.3,0,1.3C306.2,525,306.2,523.7,305.4,523.7z"/>
				<path class="st2" d="M355.2,484.5c-4-1.4-10.1-1.2-13.6,1.4c-0.1,0.1-0.1,0.4,0.1,0.3c2.2-0.8,4.2-1.4,6.5-1.4
					c2.3-0.1,4.6,0.6,6.8,0.4C355.6,485.2,355.6,484.6,355.2,484.5z"/>
				<path class="st2" d="M358.2,484c-0.6,0-0.6,1,0,1C358.8,485,358.8,484,358.2,484z"/>
			</g>
		</g>
		<g>
			<g>
				<path class="st3" d="M356.4,376.2c0,7.6-3.5,15.1-9.3,20c-3.1,2.7-7.1,4.7-11.3,4.5c-2.8-0.1-5.5-1.3-7.8-2.9
					c-0.7-0.5-1.5-1-2.3-0.8c-0.5,0.2-0.9,0.6-1.3,1.1c-4.1,5.3-10.6,8.5-17.3,8.5c-0.1,3.2-1.9,6.4-4.8,7.8
					c-2.9,1.4-6.7,0.9-8.8-1.5c-2.4-2.8-1.9-6.5-1.4-10.3c0,0,0,0,0,0c0.3-2.6,0.6-5.3,0-7.7c-1.1-3.9-4.5-6.7-8.1-8.4
					c-3.6-1.8-7.6-2.8-11.1-4.7c-4.2-2.2-7.6-5.6-10.6-9.3c-6.5-8-11.2-17.8-11.9-28.2c-0.6-7.8,1.2-15.8,5.4-22.4
					c1.1-0.3,2.2-0.6,3.3-0.8c8.2-1.9,16.7-2.9,25.5-2.9c20.9,0,40.5,5.7,57.2,15.6c-1.5,5.1-4.1,10.2-2,15c1.4,3.1,4.6,5,7.2,7.3
					C353,361.1,356.4,368.6,356.4,376.2z"/>
				<path class="st4" d="M292.4,402.6c0.3-2.6,0.6-5.3,0-7.7c-1.1-3.9-4.5-6.7-8.1-8.4c-3.6-1.8-7.6-2.8-11.1-4.7
					c-4.2-2.2-7.6-5.6-10.6-9.3c-6.5-8-11.2-17.8-11.9-28.2c-0.6-7.8,1.2-15.8,5.4-22.4c1.1-0.3,2.2-0.6,3.3-0.8
					c-3.9,7.1-9.3,21.2-2.9,36.9c9,22,28.8,22,34,27.8C295.3,391.4,292.6,401.6,292.4,402.6z"/>
			</g>
			<g>
				<path class="st3" d="M397.3,430.6c0,2.1-0.1,4.2-0.2,6.3c0,0.6-0.1,1.3-0.1,1.9c-1.6,0.1-3.2,0-4.9-0.3
					c-3.6-0.7-6.9-2.3-10.4-3.3c-3.5-1-7.4-1.4-10.6,0.4c-4.5,2.5-6.5,8.9-11.5,10.1c-3.4,0.8-6.9-1-10.4-0.8
					c-3.6,0.2-7,2.5-10.6,1.9c-0.2,0-0.5-0.1-0.6-0.3c-0.4-0.3-0.3-1,0-1.4l0,0c1-2.2,3.6-3.6,6.1-3.3c1.2-5.6,4.8-10.7,9.7-13.8
					c3-1.9,6.6-3,8.8-5.8c2.4-2.9,2.8-6.8,3.1-10.5c0.3-2.8,0.5-5.5,0.7-8.3c0.5-5.6,1.4-11.9,5.8-15.4c2.8-2.1,6.6-2.7,10.1-2.3
					c2.2,0.3,4.3,0.9,6.4,1.7C394.3,400.9,397.3,415.4,397.3,430.6z"/>
				<path class="st4" d="M397.1,436.9c0,0.6-0.1,1.3-0.1,1.9c-1.6,0.1-3.2,0-4.9-0.3c-3.6-0.7-6.9-2.3-10.4-3.3
					c-3.5-1-7.4-1.4-10.6,0.4c-4.5,2.5-6.5,8.9-11.5,10.1c-3.4,0.8-6.9-1-10.4-0.8c-3.6,0.2-7,2.5-10.6,1.9c-0.2,0-0.5-0.1-0.6-0.3
					c-0.4-0.3-0.3-1,0-1.4l0,0c0.9,0.6,2.7,1,5.9-0.3c5.6-2.2,10.8,0.8,14.8,0c4-0.8,7.7-11.7,17.9-12.2
					C383.9,432.5,391.3,435.7,397.1,436.9z"/>
			</g>
			<g>
				<path class="st3" d="M375.6,497c-16.5,22.5-41.1,38.6-69.5,44.1c-1.2,0.2-2.4,0.5-3.6,0.6c-0.1-0.3-0.1-0.6-0.1-1
					c-0.7-6.9,2.3-14,7.7-18.3c3.3-2.7,7.6-4.5,9.7-8.2c2.9-5.2-0.1-12.3-5.1-15.5c-3-1.9-7-3.3-7.8-6.8c-0.5-2.1,0.5-3.9,2.1-5.4
					c1.5-1.4,3.6-2.3,5.7-2.7c5.4-0.9,11,0.7,15.2,4.2c2,1.7,4.1,4,6.7,3.8c1.7-0.1,3.2-1.2,4.7-2.1c6.2-3.6,13.9-2.9,20.9-1.3
					C368.2,489.9,372.6,493,375.6,497z"/>
				<path class="st4" d="M323,515c-2.4,7.4-12.3,10.3-15.1,17.6c-1,2.7-1,5.7-1.8,8.5c-1.2,0.2-2.4,0.5-3.6,0.6
					c-0.1-0.3-0.1-0.6-0.1-1c-0.7-6.9,2.3-14,7.7-18.3c3.3-2.7,7.6-4.5,9.7-8.2c2.9-5.2-0.1-12.3-5.1-15.5c-3-1.9-7-3.3-7.8-6.8
					c-0.5-2.1,0.5-3.9,2.1-5.4c-0.1,0.6-0.2,1.2-0.1,1.8c0.4,2.6,2.3,4.6,4.4,6.2c2.1,1.6,4.4,2.8,6.2,4.7c2.6,2.7,3.8,6.5,4.1,10.2
					C323.7,511.3,323.6,513.3,323,515z"/>
			</g>
			<g>
				<path class="st3" d="M217.1,447.8c-5.1-0.6-9-4.5-13.1-7.3c-4.4-3.1-8.9-4.4-14.3-3.8c-5.7,0.6-11.4,2.7-17.2,1.8
					c0-0.6-0.1-1.2-0.1-1.8c-0.1-2-0.2-4-0.2-6c0-10,1.3-19.7,3.7-28.9c0,0,0,0,0,0c2.9-1.5,6-2.8,9.7-3.4c1.6-0.3,3.3-0.4,4.9-0.2
					c4.9,0.7,8.6,4.8,11.7,8.6c0.9-0.9,2.1-1.5,3.4-1.6c3.9-0.4,7.3,2.6,9.4,6c2.1,3.3,3.3,7.2,6,10.1c0.9,1,1.8,1.8,2.8,2.7
					c2.7,2.3,5.5,4.4,7.2,7.8C236.3,441.9,226.9,449,217.1,447.8z"/>
				<path class="st4" d="M217.1,447.8c-5.1-0.6-9-4.5-13.1-7.3c-4.4-3.1-8.9-4.4-14.3-3.8c-5.7,0.6-11.4,2.7-17.2,1.8
					c0-0.6-0.1-1.2-0.1-1.8c1.4-0.1,2.7-0.1,4.1-0.3c2.9-0.4,5.7-1.2,8.6-1.8c3.2-0.6,6.4-1,9.6-0.4c3.6,0.7,6.9,2.7,10.1,4.6
					c2.3,1.3,4.6,2.5,7,3.6c2.7,1.2,5.4,2.4,8.3,2.6c2.9,0.2,6-0.6,8-2.7c2.4-2.6,2.6-6.7,1.5-10c-1.1-3.2-3.4-5.9-5.7-8.3
					c2.7,2.3,5.5,4.4,7.2,7.8C236.3,441.9,226.9,449,217.1,447.8z"/>
			</g>
			<g>
				<path class="st5" d="M268.3,354.1c-0.2-0.9-0.3-1.8-0.4-2.7c0-0.5-0.8-0.5-0.7,0c0.1,1.5,0.2,3.6,1.1,4.9
					c0.1,0.2,0.4,0.1,0.4-0.1C268.7,355.5,268.4,354.8,268.3,354.1z"/>
				<path class="st5" d="M270.1,352.8c0-0.3-0.5-0.3-0.5,0c-0.1,0.7-0.3,1.6-0.1,2.3c0.1,0.3,0.6,0.3,0.6,0
					C270.4,354.4,270.2,353.5,270.1,352.8z"/>
				<path class="st5" d="M271.2,354.1c-0.2,0.6-0.6,1.4-0.4,2.1c0.1,0.4,0.6,0.4,0.8,0.1c0.4-0.6,0.3-1.5,0.3-2.1
					C271.8,353.9,271.3,353.8,271.2,354.1z"/>
				<path class="st5" d="M327,370.9c-0.1-0.4-0.3-0.8-0.3-1.3c0-0.3-0.5-0.4-0.5,0c-0.1,0.8-0.1,2.1,0.6,2.6
					c0.2,0.2,0.7,0.1,0.7-0.3C327.4,371.6,327.1,371.3,327,370.9z"/>
				<path class="st5" d="M329.5,370.1c0-0.4-0.5-0.4-0.5,0c-0.1,0.8-0.4,1.9,0,2.6c0.1,0.2,0.4,0.2,0.6,0
					C329.9,372,329.5,370.9,329.5,370.1z"/>
				<path class="st5" d="M332.4,369.9c-0.1-0.3-0.6-0.3-0.6,0.1c0,0.6,0,1.1-0.2,1.6c-0.1,0.5-0.3,0.9-0.3,1.4
					c0,0.4,0.4,0.5,0.7,0.3C332.8,372.5,332.7,370.9,332.4,369.9z"/>
				<path class="st5" d="M309.8,347.7c0-0.4-0.6-0.4-0.6,0c0,0.6-0.1,1.3,0,2c0.1,0.2,0.4,0.2,0.5,0
					C309.9,349,309.8,348.3,309.8,347.7z"/>
				<path class="st5" d="M311.8,347.8l-0.4,1.4c-0.1,0.4-0.3,0.8-0.3,1.3c0,0.2,0.4,0.4,0.5,0.1c0.4-0.8,0.4-1.8,0.6-2.7
					C312.3,347.6,311.9,347.5,311.8,347.8z"/>
				<path class="st5" d="M306.5,384.2c-0.1-0.4-0.7-0.4-0.7,0c0,1.1-0.2,2.4,0.3,3.5c0.1,0.2,0.4,0.1,0.5-0.1
					C307,386.6,306.6,385.3,306.5,384.2z"/>
				<path class="st5" d="M308.5,384.7c-0.3,1.1-0.9,2.3-0.8,3.4c0,0.3,0.4,0.5,0.6,0.2c0.6-1,0.6-2.3,0.8-3.4
					C309.3,384.5,308.6,384.3,308.5,384.7z"/>
				<path class="st5" d="M310,386.4c-0.4,0.9-1.1,1.9-1.1,3c0,0.3,0.4,0.4,0.6,0.2c0.7-0.8,1-1.9,1.3-2.9
					C310.9,386.3,310.2,386,310,386.4z"/>
				<path class="st5" d="M187.5,419c-0.1-0.3-0.4-0.1-0.4,0.1c0.2,1,0.3,2.1,0.7,3.1c0.1,0.2,0.3,0.1,0.3-0.1
					C188.3,421.1,187.8,420,187.5,419z"/>
				<path class="st5" d="M190,420.6c-0.1-0.5-0.2-0.9-0.3-1.4c-0.1-0.3-0.6-0.2-0.5,0.1c0,0.4,0,0.9,0,1.3c0,0.2,0,0.4,0,0.6
					c0,0.3,0,0.4,0.1,0.7c0.1,0.3,0.5,0.3,0.6,0c0.1-0.3,0.2-0.4,0.2-0.7C190,421.1,190,420.9,190,420.6z"/>
				<path class="st5" d="M191.6,420.4c0-0.4-0.6-0.4-0.6,0c0,0.2-0.1,0.4-0.1,0.6c0,0.2,0.1,0.3,0.1,0.5c0,0.3,0.5,0.3,0.5,0
					c0-0.2,0.1-0.3,0.1-0.5C191.7,420.8,191.6,420.6,191.6,420.4z"/>
				<path class="st5" d="M193.2,405.3c0-0.5-0.1-0.9-0.1-1.4c0-0.3-0.4-0.3-0.4,0c0,0.5-0.1,0.9-0.1,1.4c0,0.4-0.1,0.8,0.1,1.3
					c0.1,0.2,0.4,0.2,0.5,0C193.3,406.2,193.3,405.8,193.2,405.3z"/>
				<path class="st5" d="M194.1,405.8c-0.2,0.5-0.5,1-0.5,1.5c0,0.4,0.4,0.4,0.6,0.2c0.3-0.4,0.3-0.9,0.4-1.4
					C194.8,405.7,194.3,405.5,194.1,405.8z"/>
				<path class="st5" d="M208.1,423.8c-0.1-0.3-0.6-0.3-0.6,0.1c0,0.5,0,0.9-0.1,1.4c-0.1,0.4-0.2,0.8-0.2,1.2
					c0,0.2,0.3,0.4,0.5,0.2C208.4,426,208.3,424.7,208.1,423.8z"/>
				<path class="st5" d="M209.1,425.6c-0.2,0.5-0.4,1-0.3,1.6c0,0.3,0.4,0.4,0.5,0.1c0.3-0.5,0.3-1,0.4-1.5
					C209.7,425.4,209.2,425.2,209.1,425.6z"/>
				<path class="st5" d="M329.5,499c-0.1-0.6-0.2-1.3-0.2-1.9c0-0.3-0.5-0.3-0.5,0c-0.1,1.1-0.2,2.7,0.5,3.6
					c0.2,0.2,0.5,0.2,0.5-0.1C329.9,500,329.6,499.5,329.5,499z"/>
				<path class="st5" d="M330.9,498.1c-0.3,0.7-0.8,1.8-0.4,2.6c0.1,0.2,0.4,0.3,0.5,0.1c0.2-0.4,0.2-0.7,0.3-1.1
					c0.1-0.5,0.1-0.9,0.3-1.4C331.7,497.9,331.1,497.8,330.9,498.1z"/>
				<path class="st5" d="M332.6,499c-0.2,0.5-0.4,0.9-0.7,1.4c-0.2,0.4-0.4,0.7-0.3,1.2c0,0.2,0.2,0.3,0.4,0.2
					c0.5-0.1,0.7-0.6,0.9-1c0.2-0.5,0.3-1,0.5-1.6C333.4,498.7,332.7,498.5,332.6,499z"/>
				<path class="st5" d="M332.9,519.9c-0.2-0.6-0.4-1.1-0.6-1.7c-0.1-0.3-0.6-0.2-0.5,0.1c0.1,0.6,0.2,1.2,0.3,1.8
					c0.1,0.5,0.2,1.1,0.4,1.6c0.2,0.3,0.7,0.2,0.7-0.2C333.3,521,333.1,520.5,332.9,519.9z"/>
				<path class="st5" d="M335.6,520.4c-0.1-0.5-0.1-0.9-0.1-1.4c0-0.4-0.7-0.5-0.7-0.1c-0.1,0.7-0.4,2.2,0.3,2.7
					c0.1,0.1,0.3,0,0.4-0.1C335.8,521.2,335.7,520.8,335.6,520.4z"/>
				<path class="st5" d="M337.5,519.2c-0.2,0.9-0.7,1.9-0.5,2.8c0,0.1,0.2,0.2,0.3,0.1c0.8-0.6,0.8-1.8,0.9-2.8
					C338.2,518.9,337.5,518.8,337.5,519.2z"/>
				<path class="st5" d="M363,429.2c-0.1-0.3-0.7-0.3-0.6,0.1c0.1,0.8,0.1,1.9,0.6,2.6c0.2,0.2,0.5,0.1,0.6-0.2
					C363.7,430.9,363.2,430,363,429.2z"/>
				<path class="st5" d="M365.3,429.4c-0.1,0.5-0.2,1-0.3,1.5c-0.1,0.5-0.1,0.8,0,1.3c0,0.2,0.3,0.2,0.4,0c0.2-0.4,0.3-0.7,0.3-1.2
					c0-0.5,0-1,0.1-1.5C365.7,429.2,365.4,429.2,365.3,429.4z"/>
				<path class="st5" d="M368.1,428.9c-0.1-0.4-0.6-0.2-0.6,0.2c0.1,0.6-0.2,1-0.3,1.5c0,0.1,0.1,0.3,0.2,0.2
					C368.2,430.5,368.2,429.6,368.1,428.9z"/>
				<path class="st5" d="M379.4,410c0-0.4-0.6-0.4-0.6,0c0,0.8,0,1.6,0.3,2.4c0.1,0.3,0.5,0.2,0.5-0.1
					C379.6,411.6,379.5,410.8,379.4,410z"/>
				<path class="st5" d="M381.6,411.1c-0.1,0.5-0.5,1.2-0.3,1.8c0.1,0.2,0.3,0.3,0.5,0.1c0.4-0.4,0.4-1.2,0.5-1.7
					C382.4,410.9,381.8,410.7,381.6,411.1z"/>
			</g>
		</g>
		<path class="st6" d="M397.6,430.6c0,2.7-0.1,5.5-0.3,8.2c-1.5,21.7-9.3,41.7-21.4,58.2c-17.1,23.4-43.1,40-73.1,44.7
			c-5.8,0.9-11.7,1.4-17.8,1.4c-7.7,0-15.1-0.8-22.4-2.2c55.6-10.5,97.7-59.3,97.7-117.9c0-44.3-24-83-59.8-103.8
			c15.1,2.1,29.1,7.1,41.7,14.6c20.9,12.3,37.4,31.2,46.7,53.8C394.6,400.9,397.6,415.4,397.6,430.6z"/>
		<path class="st7" d="M182.8,434.7c0,42.3,22.9,79.3,57.1,99.1c-37.5-16.3-64.4-52.6-67.3-95.4c-0.2-2.6-0.3-5.2-0.3-7.8
			c0-10,1.3-19.7,3.7-28.9c0,0,0,0,0,0c10.3-39,41-69.6,79.9-79.9c9.2-2.4,18.9-3.7,28.8-3.7c5.3,0,10.5,0.4,15.5,1.1
			c3,0.4,6,1,9,1.6c-4-0.4-8-0.6-12-0.6C234,320.2,182.8,371.5,182.8,434.7z"/>
		<g>
			<g>
				<g>
					<circle class="st8" cx="264.6" cy="424.9" r="5.8"/>
					<circle class="st8" cx="306.6" cy="424.9" r="5.8"/>
				</g>
				<path class="st8" d="M278.3,425.4c0.8,1.5,1.8,2.9,3.1,3.9c0.6,0.5,1.3,0.9,2,1.2c0.7,0.3,1.5,0.5,2.3,0.4
					c0.4,0,0.8-0.1,1.1-0.1c0.4-0.1,0.7-0.1,1.1-0.3c0.7-0.3,1.3-0.7,1.8-1.3c1-1.2,1.7-2.8,2.1-4.4c0.1,1.7-0.2,3.5-1.3,5.1
					c-1,1.6-3.1,2.5-4.9,2.4c-0.9,0-1.9-0.2-2.7-0.6c-0.8-0.4-1.6-1-2.2-1.6C279.4,428.8,278.7,427.1,278.3,425.4z"/>
			</g>
			<path class="st6" d="M267.1,435.9c0,1.9-1.5,3.5-3.5,3.5c-1.9,0-3.5-1.5-3.5-3.5s1.5-3.5,3.5-3.5
				C265.6,432.4,267.1,434,267.1,435.9z"/>
			<path class="st6" d="M309.2,435.9c0,1.9-1.5,3.5-3.5,3.5c-1.9,0-3.5-1.5-3.5-3.5s1.5-3.5,3.5-3.5
				C307.7,432.4,309.2,434,309.2,435.9z"/>
		</g>
	</g>
	<g>
		<g>
			<g>
				<path class="st9" d="M311.8,187.8c-1.2,3-3.8,6.6-8.5,10.8c-0.8,0.7-1.7,1.5-2.6,2.2c0,0-0.1,0.1-0.1,0.1l0,0
					c-25,20.1-82.9,16.8-82.9,16.8s-1.8,1-4.3,1.8c-4.5,1.4-11.6,2.1-16-4.2c-6.9-10,4-17.8,4-17.8s-5-7.8,4.2-14.5
					c-1,0.8-6.2-2.5-6.9-3.1c-4.4-3.3-3.3-9.1,0.7-12.4c2.1-1.7,4.9-2.4,7.5-2.6c4-0.3,7.9,0.5,11.9,0.2c1.9-0.1,5.6-0.1,7.3-0.6
					c-3-2.8-4.7-5.8-5.2-9.4c-0.4-3.5,0.6-7.3,3.4-9.5c0.5,3,0.7,6.1,1.1,9.1c0.2,1.7,0.2,3.5,0.6,5.2c0.1,0.7,0.6,3.9,1.1,4.4
					c1.2-3.4,5.5-14.2,7.6-19.5c0.8,3,1.2,6.2,0.8,9.2c-0.4,3.1-2.2,6.4-4.4,8.6c0.1-0.1,3.7,0.1,5.5,0c2.2-0.2,3.8-0.7,5.2-1.3
					c3.2-1.4,5.3-3.8,7.9-6.2c4.3-4.1,8-8.9,13.3-11.9c4.3-2.4,9.2-4.1,14.1-4.9c9.6-1.6,20.5,0.5,25.5,9.8c3.2,6,3.5,13.2,2.6,20
					c-0.2,1.8-0.5,3.6-0.8,5.3C304.3,173.5,315.9,177.5,311.8,187.8z"/>
				<path class="st9" d="M231.1,166c0,0,10,0.1,20.2-13.7c10.2-13.7,34.7-24.1,44.3-8c0,0-4.5-18-25.5-10.2
					c-20.9,7.8-22.5,27.7-39.7,28.7L231.1,166z"/>
				<path class="st9" d="M202.1,197.2c-0.8,0.3-15.7,6-4.4,18.6c0,0-9.2-7.2-4.8-13.7C197,196.1,202.1,197.2,202.1,197.2z"/>
			</g>
			<g>
				<g>
					<path class="st10" d="M224.3,247.2c-24.3,5.4-31.7-10.1-29.4-18.7c0.4-1.7,1.3-3.1,2.4-4.1c5.5-4.4,13.7-1.1,17,0.6
						c0.9,0.5,1.5,0.8,1.5,0.8L224.3,247.2z"/>
					<path class="st11" d="M220.7,243.7h-2.5c0,0-6.6-18.2-22.8-15.3c-0.2,0-0.4,0.1-0.6,0.1c0.4-1.7,1.3-3.1,2.4-4.1
						c5.5-4.4,13.7-1.1,17,0.6L220.7,243.7z"/>
					<g>
						<path class="st9" d="M200.5,228.5c1.9-0.1,3.9,0.2,5.8,0.9c1.8,0.7,3.6,1.7,5.1,3c1.5,1.3,2.9,2.7,3.9,4.4
							c0.6,0.8,0.9,1.7,1.4,2.6c0.4,0.9,0.7,1.8,1,2.7c-0.6-0.8-1-1.6-1.6-2.4c-0.6-0.8-1.1-1.6-1.7-2.3c-0.3-0.4-0.6-0.7-0.9-1.1
							c-0.3-0.4-0.6-0.7-1-1c-0.6-0.7-1.3-1.3-2-1.9c-1.4-1.2-3-2.2-4.7-3C204.2,229.5,202.4,228.8,200.5,228.5z"/>
						<path class="st9" d="M202.1,237.2l12.5-1.3C214.7,235.9,209,232.1,202.1,237.2z"/>
					</g>
				</g>
				<path class="st10" d="M302.1,257.6c-2.3,2.7-4.1,3.9-4.1,3.9s-25.2,22.6-59,2c-17-10.3-23.4-28.4-25.6-43.9
					c-2.2-15.4-0.2-28.3-0.2-28.3c11.1-22.1,40.3-23.7,58.7-22.2c9.2,0.7,15.6,2.2,15.6,2.2c6.4,9.1,11.3,17.4,14.9,25
					c0.4,0.8,0.8,1.6,1.1,2.4c3.9,8.6,6.1,16.1,7.1,22.8C313.5,240.7,306.8,252.1,302.1,257.6z"/>
				<path class="st10" d="M310.4,221.3c-0.8,0.5-1.6,0.9-2.4,1.2c-0.7,0.3-1.3,0.4-1.9,0.4c-7,0.1-6.1-16.2-5.6-22
					c0-0.1,0-0.3,0-0.4c0.1-1,0.2-1.6,0.2-1.6c0-0.1,0.5-1.2,1.5-2.7c1.9-3,5.4-7.4,9.6-8.4c1.9-0.5,4-0.2,6.1,1.1
					C326.4,194.5,320,215.1,310.4,221.3z"/>
				<g>
					<path class="st9" d="M308.1,213.7c-0.9-2-1.4-4.1-1.7-6.2c-0.3-2.2-0.3-4.4,0.2-6.5c0.5-2.2,1.4-4.3,3-5.9
						c1.6-1.6,3.7-2.6,5.8-2.9c-2,0.9-3.7,2-5,3.6c-1.3,1.6-2.1,3.5-2.5,5.5c-0.5,2-0.5,4.1-0.5,6.2
						C307.5,209.4,307.7,211.6,308.1,213.7z"/>
					<path class="st9" d="M307,207.7c0,0,10.6-6.8,10.6-6.9C317.6,200.8,309.2,197.9,307,207.7z"/>
				</g>
				<path class="st11" d="M317.9,188.9c-2.1-1.4-4.2-1.6-6.1-1.1c-0.9,0.2-1.8,0.6-2.6,1.1c1.5-5.3-2.6-10.2-7.4-12
					c0,0-0.1,0.1,0,0.1c5.1,2.2,8.1,7,6.6,12.5c-2.7,1.8-4.8,4.7-6.1,6.8c-3.6-7.6-8.4-15.9-14.9-25c0,0-6.4-1.5-15.6-2.2l-15.6,6.8
					l-6.7,12.6c0,0,9,3.5,14.5-0.8c0,0,17,12.7,28.6-0.7c0,0,4.2,5.3,8,13.7c0,0.1,0.1,0.2,0.1,0.3c2.7,6.1,5.2,13.8,5.5,22.1
					c0.4,10.2-2.3,21.4-11.6,32c-11,12.7-4.3,10.1,7.5,2.6c4.7-5.4,11.4-16.9,8.4-36.2C320,215.1,326.4,194.5,317.9,188.9z"/>
			</g>
			<g>
				<path class="st9" d="M286,193.5c-0.6,0.8-1.4,1.3-2.3,1.5c-0.6,0.2-1.3,0.2-1.9,0.1c-1.3-0.1-2.5-0.3-3.7-0.8
					c-0.2-0.1-0.4-0.1-0.5-0.2c-0.4-0.2-0.8-0.4-1.2-0.6c-0.1-0.1-0.3-0.2-0.4-0.3c-0.6-0.4-1.2-0.8-1.7-1.3c-0.5-0.5-1-1.1-1-1.8
					c0-1,1.1-1.7,2.1-2c1.4-0.5,2.9-0.7,4.4-0.6c0.4,0,0.8,0,1.1,0.1c0.7,0.1,1.4,0.2,2.1,0.3c0.3,0.1,0.6,0.1,0.9,0.2
					c0.2,0.1,0.4,0.1,0.5,0.2C286.4,189.3,287.5,191.5,286,193.5z"/>
				<g class="st12">
					<path class="st9" d="M280.8,187.6c-2.2,1.6-3.8,3.4-4.5,5.9c-0.1-0.1-0.3-0.2-0.4-0.3c0.4-2.3,1.8-4.5,3.8-5.7
						C280,187.6,280.4,187.6,280.8,187.6z"/>
					<path class="st9" d="M284.3,188.4c-1,0.6-2,1.2-3,2.1c-1.1,1.1-2.5,2.5-3.3,4c-0.2-0.1-0.4-0.1-0.5-0.2c0.3-1.5,2-3.1,2.9-4
						c0.7-0.8,1.6-1.6,2.5-2.2c0.3,0.1,0.6,0.1,0.9,0.2C284,188.2,284.1,188.3,284.3,188.4z"/>
				</g>
			</g>
			<g>
				<circle class="st11" cx="239.8" cy="242.7" r="6.8"/>
				<circle class="st11" cx="288.1" cy="233.5" r="6.8"/>
				<g>
					<path class="st9" d="M251.5,229.8c0.3,1.4,0.6,2.7,1.1,3.9c0.5,1.2,1.3,2.1,2.4,2.2c0.5,0.1,1.1-0.1,1.6-0.4
						c0.5-0.3,1.1-0.6,1.5-1.1c1-0.9,1.8-1.9,2.7-3c-0.4,1.4-1.1,2.6-2,3.7c-0.4,0.6-1,1.1-1.7,1.5c-0.7,0.4-1.5,0.7-2.3,0.6
						c-0.8-0.1-1.7-0.5-2.2-1.1c-0.5-0.6-0.9-1.3-1.1-2C251.3,232.6,251.2,231.2,251.5,229.8z"/>
					<path class="st11" d="M251.6,236.6c0,0,1.3,3.1,5.1,1.3"/>
				</g>
				<g>
					<g>
						<path class="st0" d="M290.8,221.9c-0.3,0.5-0.7,0.9-1.1,1.3c0,0.1-0.1,0.1-0.2,0.2c0,0,0,0,0,0c-1.6,1.5-3.6,2.5-6,2.5
							c-0.7,0-1.4,0-2.2-0.2c-0.7-0.1-1.4-0.3-2.1-0.6c0,0,0,0,0,0c-4.4-1.9-7.6-7.2-9.4-11.5c-0.1-0.2-0.2-0.4-0.3-0.7
							c0-0.1,0-0.1-0.1-0.2c-0.2-0.4-0.3-0.8-0.4-1.2c-0.3-1-0.4-2-0.5-3v-0.1c0-0.3,0-0.6,0-0.9c0.1-5.3,3.3-10.1,9.2-10.9
							c3.6-0.5,7.3,0.4,10,3c2.3,2.1,3.9,4.9,4.8,7.9c0,0,0,0,0,0c0.3,1.1,0.6,2.2,0.7,3.3C293.8,214.6,292.9,218.9,290.8,221.9z"/>
						<path class="st13" d="M271.2,200.4c0,0,16.8-10.9,22.2,12.4c0,0-0.2-12.6-9.6-15.3C275,194.9,271.2,200.4,271.2,200.4z"/>
						<path class="st14" d="M292.6,207.7C292.6,207.7,292.6,207.7,292.6,207.7c-10.7-9.4-23.5-0.3-24,0.1c0.1-5.3,3.3-10.1,9.2-10.9
							c3.6-0.5,7.3,0.4,10,3C290.1,201.9,291.7,204.7,292.6,207.7z"/>
						<path class="st13" d="M279.9,207.9c-5-0.6-8.4,2.7-10.4,5c0.3,1.2,0.5,2.4,0.8,3.6c0.5,1.5,1,3,1.8,4.3
							c2.6,4.4,7.8,6.8,12.8,5.6c1.4-0.3,2.8-0.9,3.9-1.9c0.2-0.2,2.1-2.5,1.9-2.5C289.8,215.4,285.7,208.6,279.9,207.9z"/>
					</g>
					<g>
						<path class="st0" d="M244.2,233.2c-5.5,3-10.1,2.1-12.3,1.3c-0.8-0.3-1.3-0.5-1.4-0.6c0,0,0,0,0,0s-0.2-0.1-0.4-0.2
							c-1.1-0.6-4.3-2.6-6.7-6.7l0,0c0,0,0,0,0,0c-0.8-1.3-1.5-2.9-2-4.7c-0.2-0.6-0.3-1.2-0.4-1.9c-1.8-10.1,6.6-18.3,17.4-17.5
							c3.4,0.3,5.9,2.5,7.7,6c0,0,0,0,0,0c0.2,0.3,0.3,0.7,0.5,1c0.3,0.8,0.7,1.7,0.9,2.7c0.3,1,0.5,2,0.7,3c0,0.2,0.1,0.4,0.1,0.6
							C249.4,223.3,248.2,231,244.2,233.2z"/>
						<path class="st13" d="M244.2,233.2c-5.5,3-10.1,2.1-12.3,1.3c-1.6-5.6-1.9-13.1,4.1-17c5-3.1,9.2-2.6,12.2-1.4
							C249.4,223.3,248.2,231,244.2,233.2z"/>
						<path class="st14" d="M246.6,209.9c-18.5-5.3-24.7,11.2-25.1,12.3c-0.2-0.6-0.3-1.2-0.4-1.9c-1.8-10.1,6.6-18.3,17.4-17.5
							C242.1,203.2,244.9,205.8,246.6,209.9z"/>
						<path class="st13" d="M246.1,208.9c-0.7-1.1-5.5-8.1-15.7-3.6c-11,4.8-8.7,17.6-6.9,21.7c-0.8-1.3-1.5-2.9-2-4.7
							c-0.2-0.6-0.3-1.2-0.4-1.9c-1.8-10.1,6.6-18.3,17.4-17.5C241.7,203.1,244.3,205.4,246.1,208.9z"/>
					</g>
				</g>
				<g>
					<path class="st11" d="M257.8,221.6l0.1-12c0,0-6.5,16.7,1.4,16.2c0,0,5.1-5.1,4.6-6.4S259.3,220.1,257.8,221.6z"/>
					<path class="st9" d="M257.9,209.6c0.4,3.9,0.6,7.7,0.6,11.6l-1.1-0.5c1-0.8,2.1-1.6,3.3-2.1c0.6-0.3,1.3-0.5,2.1-0.5
						c0.4,0.1,0.8,0.1,1.3,0.6c0.4,0.6,0.2,1.1,0.1,1.4c-0.5,1.4-1.4,2.3-2.3,3.2c-0.9,0.9-1.8,1.8-2.8,2.6c0.8-1,1.5-2,2.2-3
						c0.7-1,1.4-2.1,1.7-3.1c0.1-0.2,0-0.4,0-0.4c0,0-0.2-0.1-0.4-0.1c-0.4,0-1,0.2-1.5,0.5c-1,0.5-2.1,1.2-3,2l-1.1,0.8l0-1.3
						C257.4,217.3,257.5,213.5,257.9,209.6z"/>
					<path class="st0" d="M260.2,223c0,0,2.8-1.9,2-2.6C261.4,219.7,260.2,223,260.2,223z"/>
				</g>
			</g>
			<g>
				<path class="st9" d="M224.4,190.7c0,0-5.8,16.8-14.9,18.2c-9.1,1.4-1.7-25.6-1.7-25.6L224.4,190.7z"/>
				<g>
					<g>
						<g>
							<path class="st9" d="M207.7,185.7c0,0,14.1,13.6,28.6,13.2c14.5-0.5,13-10.5,13-10.5s12.5,2.9,10.7-9.4
								c0,0,24.5,16.7,32.6-9.6C292.7,169.4,244.6,144.4,207.7,185.7z"/>
							<path class="st9" d="M259.7,178.5c0,0,6.9,8.3,18.1,7.2c11.2-1.1,12.3-11.6,12.3-11.6l3.4,2.7
								C293.5,176.8,280,205.2,259.7,178.5z"/>
						</g>
						<g>
							<path class="st11" d="M238,195.5c-4.3,1.2-8.5-0.5-12.4-2.4c-0.4-0.2-0.7,0.4-0.3,0.5c3.6,1.8,9,4.5,12.9,2.3
								C238.4,195.8,238.3,195.4,238,195.5z"/>
							<path class="st11" d="M237.3,193.1c-2.1,0.2-3.9,0.3-6,0c-0.1,0-0.1,0.1,0,0.1c1.8,1,4.2,1.3,6.1,0.5
								C237.7,193.5,237.7,193,237.3,193.1z"/>
							<path class="st11" d="M295,150.4c-8.3-9.8-25.6-8.3-34.1,0.9c-0.1,0.1,0.1,0.3,0.2,0.2c5-4.4,10.9-6.1,17.5-6.5
								c6.6-0.4,10.9,1.9,15.7,6.2C294.8,151.6,295.4,150.9,295,150.4z"/>
							<path class="st11" d="M289.5,151.9c-1.8-1.3-4.1-2.8-6.4-3.1c-0.2,0-0.2,0.3,0,0.3c1.9,0.5,4.1,2.1,5.6,3.3
								c1.6,1.3,2.9,2.7,3.8,4.6c0.2,0.3,0.7,0.1,0.6-0.3C292.6,154.7,291.2,153.1,289.5,151.9z"/>
							<path class="st11" d="M206.3,169.7c-2-0.1-3.9,0.2-5.4,1.7c-1.3,1.3-1.9,3.6-1.2,5.4c0.2,0.6,1,0.5,1.1-0.1
								c0.2-1.7-0.1-3.3,1.3-4.6c1.1-1.1,2.8-1.6,4.3-1.9C206.6,170.1,206.6,169.7,206.3,169.7z"/>
							<path class="st11" d="M205.4,172.3c-0.8,0.2-1.5,0.7-2,1.3c-0.4,0.6-0.9,1.6-0.6,2.3c0.1,0.2,0.5,0.3,0.5,0
								c0.2-0.7,0.1-1.3,0.5-1.9c0.4-0.6,1-1.1,1.7-1.3C205.9,172.7,205.7,172.2,205.4,172.3z"/>
							<path class="st11" d="M303.3,181.1c-0.2-0.2-0.5,0.1-0.3,0.3c2,1.9,2.3,4.2,2.3,6.8c0,0.3,0.4,0.3,0.4,0.1
								C306.6,185.7,305.2,182.8,303.3,181.1z"/>
						</g>
					</g>
					<g>
						<path class="st15" d="M208.3,185.2c-1.3-0.9-3.4,0.6-4.2,1.7c-1,1.2-1.8,3.5-0.9,4.9c0.4,0.6,1.3,0.5,1.5-0.2
							c0.2-0.6,0.1-1.2,0.2-1.8c0.1-0.7,0.4-1.4,0.9-1.9c0.4-0.5,0.9-1,1.5-1.3c0.5-0.3,0.8-0.4,1.1-0.9
							C208.6,185.6,208.5,185.3,208.3,185.2z"/>
						<g>
							<path class="st15" d="M278.7,152.1c-0.5,0-0.8,0.3-0.9,0.7c-0.1,0.1-0.2,0.3-0.1,0.5c0.4,0.5,0.5,0.5,1.1,0.8
								c1.3,0.6,2.6,1,3.9,1.7c2.5,1.3,4.2,2.7,5.9,4.9c0.5,0.7,1.4,0.3,1.3-0.5C289.3,155.9,282.7,151.9,278.7,152.1z"/>
							<path class="st15" d="M292,163.1c-0.7,0-0.7,1.2,0,1.2C292.8,164.3,292.8,163.1,292,163.1z"/>
						</g>
					</g>
				</g>
			</g>
		</g>
		<g>
			<g>
				<path class="st10" d="M245.3,341.8c-8.7,5.6-19.3,20.9-27.5,34.1c-1.9,3.2-3.8,6.2-5.4,9c-0.4,0.7-0.8,1.4-1.2,2
					c-3.8,6.7-6.2,11.4-6.2,11.4l-9.4,3.6c-22.3-8.7-36.1-29.1-39.2-34.2c-0.5-0.7-0.7-1.1-0.7-1.1c7.5-4.5,19-2.7,23.1-1.9l0,0
					c0,0,0,0,0.1,0c0.9,0.2,1.4,0.3,1.4,0.3c1.7-2.8,3.4-5.4,5-7.9c9.6-14.1,19-22.8,24.3-27.2c2.7-2.2,4.3-3.3,4.3-3.3L245.3,341.8
					z"/>
				<path class="st16" d="M245.3,341.8c-8.7,5.6-19.3,20.9-27.5,34.1c-4.7-4.4-9.8-7.9-14.7-10.7c-7.2-4.1-13.8-6.7-17.8-8
					c9.6-14.1,19-22.8,24.3-27.2c2.7-2.2,4.3-3.3,4.3-3.3L245.3,341.8z"/>
				<path class="st17" d="M245.3,341.8c-8.7,5.6-19.3,20.9-27.5,34.1c-1.9,3.2-3.8,6.2-5.4,9c-0.4,0.7-0.8,1.4-1.2,2l-15.2-12.1
					l7-9.6l12.2-16.8l-5.7-18.4c2.7-2.2,4.3-3.3,4.3-3.3L245.3,341.8z"/>
				<g>
					<path class="st18" d="M212.4,384.9c-2.7,4.6-4.8,8.5-6.1,10.9c-0.9,1.6-1.3,2.5-1.3,2.5l-9.4,3.6
						c-11.5-4.5-20.8-12.2-27.5-19.2c-6.2-6.5-10.2-12.6-11.7-15c-0.5-0.7-0.7-1.1-0.7-1.1c1.5-0.9,3.2-1.6,4.9-2
						c4.9-1.3,10.4-1,14.3-0.5c1.6,0.2,2.9,0.4,3.8,0.6l0,0c0,0,0,0,0.1,0C180,365.1,197.5,369.5,212.4,384.9z"/>
					<path class="st0" d="M170.2,380.5c-0.6,0.9-1.3,1.6-2,2.2c-6.2-6.5-10.2-12.6-11.7-15c-0.5-0.7-0.7-1.1-0.7-1.1
						c5.8-3.5,13.9-3.2,19.2-2.5C175.9,367.8,175.4,373.3,170.2,380.5z"/>
					<path class="st0" d="M206.3,395.8c-0.9,1.6-1.3,2.5-1.3,2.5l-9.4,3.6c-11.5-4.5-20.8-12.2-27.5-19.2
						c-6.2-6.5-10.2-12.6-11.7-15c-0.5-0.7-0.7-1.1-0.7-1.1c1.5-0.9,3.2-1.6,4.9-2C168.3,367.8,193.9,379.4,206.3,395.8z"/>
					<path class="st13" d="M205,398.3l-9.4,3.6c-22.3-8.7-36.1-29.1-39.2-34.2C164.8,371.3,187.5,381.6,205,398.3z"/>
					<g>
						<path class="st0" d="M185.8,367.5c-0.7-1.4-2.2-1.9-3.6-1.9c0,0,0,0,0,0.1c0.5,0.3,1.1,0.5,1.7,0.8c1.1,0.7,1.5,1.5,1.8,2.7
							c0.4,1.5,0.7,3.1,1.3,4.6c0.1,0.3,0.5,0.1,0.5-0.1C187.3,371.7,186.7,369.2,185.8,367.5z"/>
						<path class="st0" d="M192.7,370.4c-0.6-1.1-1.7-2-3-1.8c-0.1,0-0.1,0.1,0,0.1c0.4,0.3,0.9,0.4,1.3,0.7c0.7,0.4,1,1.1,1.3,1.8
							c0.4,1.1,0.5,2.1,0.6,3.2c0,0.4,0.7,0.6,0.8,0.1C194,373.2,193.3,371.6,192.7,370.4z"/>
					</g>
				</g>
				<path class="st19" d="M207.9,337.3c-6.1,3.2-11.4,8.6-15.2,14.2c-0.2,0.2,0.2,0.5,0.4,0.3c4.9-4.9,10.2-9.3,15.3-13.9
					C208.7,337.6,208.2,337.1,207.9,337.3z"/>
			</g>
			<g>
				<path class="st10" d="M379.7,371.2c-3.3,10.7-28,25.4-28,25.4l-15.2-4.3l-7.3-2.1c-0.6-3.2-1.3-6.3-2.1-9.4
					c-1.3-4.8-2.9-9.3-4.6-13.6c-10.7-25.9-28.1-41.6-33.3-45.9c-1-0.8-1.5-1.2-1.5-1.2s1.3-0.8,3.7-1.8c5.6-2.6,17-6.9,28.7-6.2
					c4,0.2,8,1,11.8,2.6c0.3,0.1,0.5,0.2,0.8,0.3c6.8,3,12.3,8.5,16.5,14.3c5.4,7.5,8.7,15.7,10.3,20.3c0.8,2.3,1.2,3.7,1.2,3.7
					c10.9-1.3,16.7,1.3,18.9,5.9C381.2,362.6,381.1,366.8,379.7,371.2z"/>
				<path class="st16" d="M359.5,349.8c-17.2-2.6-30.2,9.3-36.9,17.6c-12.6-30.8-34.8-47.1-34.8-47.1s24.9-14.1,45-5.1
					C348.4,322.1,356.6,341.6,359.5,349.8z"/>
				<g>
					<path class="st18" d="M379.7,371.2c-0.4,1.1-0.9,2.3-1.7,3.5c-6.5,10.1-26.2,21.9-26.2,21.9l-22.5-6.4
						c-0.2-1.2-0.4-2.3-0.7-3.5c-0.4-2-0.9-4-1.4-5.9c9.6-13.6,22.9-21.9,29.5-25.5c2.5-1.3,4-2,4-2c10.9-1.3,16.7,1.3,18.9,5.9
						c0.2,0.5,0.4,0.9,0.6,1.4C381.2,363.8,380.9,367.4,379.7,371.2z"/>
					<path class="st0" d="M379.7,371.2c-0.4,1.1-0.9,2.3-1.7,3.5c-4.5,0.8-9.8-0.2-15-5.9c-5.1-5.6-6.5-10-6.4-13.4c2.5-1.3,4-2,4-2
						c10.9-1.3,16.7,1.3,18.9,5.9c0.2,0.5,0.4,0.9,0.6,1.4C381.2,363.8,380.9,367.4,379.7,371.2z"/>
					<path class="st0" d="M379.7,371.2c-3.3,10.7-28,25.4-28,25.4l-22.5-6.4c-0.2-1.2-0.4-2.3-0.7-3.5c6.6-7.6,34.8-37.9,51.6-26.1
						C381.2,363.8,380.9,367.4,379.7,371.2z"/>
					<path class="st13" d="M379.7,371.2c-3.3,10.7-28,25.4-28,25.4l-22.5-6.4c0,0,30-33.6,50.3-31
						C381.2,362.6,381.1,366.8,379.7,371.2z"/>
					<g>
						<path class="st0" d="M350.7,358.7c-2.5,0-1.4,4.4-1.1,5.7c0.1,0.2,0.4,0.2,0.4-0.1c0.1-0.9,0-1.8,0-2.7c0-0.4,0-0.9,0.1-1.3
							c0.2-0.5,0.5-0.8,0.7-1.2C351,358.9,350.9,358.7,350.7,358.7z"/>
						<path class="st0" d="M346,362.1c-1.4,0.1-3,1.3-3.6,2.6c-0.4,0.8-0.6,3.1,0.6,3.4c0.1,0,0.3,0,0.3-0.2c0.3-1-0.2-2.1,0.2-3.1
							c0.5-1.2,1.7-1.7,2.6-2.5C346.2,362.3,346.1,362.1,346,362.1z"/>
					</g>
				</g>
				<path class="st17" d="M319.1,331.7c0,0,17.2,31.2,17.4,60.7l-7.3-2.1c-0.6-3.2-1.3-6.3-2.1-9.4c-1.3-4.8-2.9-9.3-4.6-13.6
					c-10.7-25.9-28.1-41.6-33.3-45.9l2.1-3c5.6-2.6,17-6.9,28.7-6.2l11.8,2.6c0.3,0.1,0.5,0.2,0.8,0.3c6.8,3,12.3,8.5,16.5,14.3
					L319.1,331.7z"/>
				<path class="st19" d="M355.1,343.6c-1.9-4.4-5.8-7.5-8.1-11.6c-0.3-0.5-1.1-0.2-0.9,0.4c0.7,2.1,2.3,3.8,3.6,5.6
					c1.4,2.1,2.7,4.3,4.4,6.2C354.5,344.6,355.4,344.1,355.1,343.6z"/>
			</g>
		</g>
		<g>
			<g>
				<path class="st19" d="M200.7,299.1c0,0-23.2,28.7,13,35C250,340.4,200.7,299.1,200.7,299.1z"/>
				<path class="st19" d="M364.9,270.7c0,0,41.1,26.6-5.5,42.4C312.9,329,364.9,270.7,364.9,270.7z"/>
			</g>
			<g>
				<g>
					<path class="st0" d="M372,229.1l-88.2,27.4l0,2.8c1.6,4-3.8,3.8-3.8,3.8l-9.8-3.1l-1.6,0.4c-40-18.4-81.2,0.4-81.9,0.7
						c-0.3,0.1,0-0.8,0.5-2.1c0.1-0.4,0.3-0.8,0.4-1.2c0.2-0.6,0.4-1.1,0.6-1.6c0.5-1.3,1-2.3,1-2.3c8.8-4,23.3-8.4,23.3-8.4
						l-18.2,2.2c58.9-16.3,79.5,8.2,79.5,8.2c1.4,1.5,2.8,2.9,4.2,4.4c-0.7-0.8-0.9-1.9-0.8-2.9c0.1-1,0.5-2,1-3
						c5.1-11,13.8-20.2,24-26.4c8.2-5,17.6-8,27.1-9.2c7.8-1,15.8-0.9,23.6,0.1c4.4,0.6,8.7,1.3,12.9,2.5c0.2,0.1,0.5,0.2,0.7,0.2
						c-5.7,0.5-10.6,3.4-10.6,3.4l11-1.2l2.7,2.9L372,229.1z"/>
					<path class="st14" d="M372,229.1l-87.6,29.2l-6.4,2.1c0.3-0.6,11.9-22.8,30-31.9c0,0-16.7,13.8-21.3,21
						c0.8-1,13.6-17,36.5-23.6c-1.4,0.6-24.6,9.9-35.2,25c1.6-1.7,30.6-31.7,81.7-24.1L372,229.1z"/>
					<path class="st14" d="M278.5,260.4l-8.3-0.4l-1.6,0.4c-40-18.4-81.2,0.4-81.9,0.7c-0.3,0.1,0-0.8,0.5-2.1
						c7.7-3.5,19.6-7.1,20.5-7.4c-8.5,1.3-16.6,4.7-20,6.2c0.2-0.6,0.4-1.1,0.6-1.6c30.7-15.4,71.4-4.2,72.9-3.8
						c-16.2-7.3-36.1-7.8-36.1-7.8C251.9,242.5,278.5,260.4,278.5,260.4z"/>
				</g>
				<g>
					<g>
						<path class="st20" d="M294.6,323.3c0,0-4.6,7.7-14.6,2.5l-0.4-2.3l-0.5-3.1l-8.5-50.3l-0.4-2.3l-0.9-5l-0.2-1.4l-0.4-2.2
							c0,0,11.4,3.2,15.2-2.8l0.4,2.6l0.2,1.3l0.8,4.7l0.4,2.5l8.2,50.6l0.4,2.9L294.6,323.3z"/>
						<path class="st21" d="M294.2,321c-1.8,1.6-6.6,5.1-14.6,2.6l-0.5-3.1c2.4,0.5,8.9,1.7,14.7-2.3L294.2,321z"/>
						<path class="st22" d="M284.2,259c-5.3,3.9-12.4,3-15.2,2.4l-0.4-2.2c0,0,11.4,3.2,15.2-2.8L284.2,259z"/>
						<path class="st21" d="M285.6,267.5c-1.4,1.3-5.2,4.3-15.1,2.6l-0.4-2.3c2.9,0.8,9.4,1.8,15.1-2.8L285.6,267.5z"/>
					</g>
					<g>
						<path class="st18" d="M280,325.8l-57,26.3l-40.6-88.8c41-22.3,81-6.3,85.8-4.3c0.3,0.1,0.5,0.2,0.5,0.2l0.4,2.2v0l10.8,63.4
							L280,325.8z"/>
						<g>
							<path class="st20" d="M226.5,345.2l-0.3-0.6L190,266.5l0.6-0.3c39.1-16.8,73.7-1.9,74.1-1.8l0.3,0.1l10.7,58.3L226.5,345.2z
								 M191.8,267.2l35.3,76.2l47.1-21.3l-10.4-56.6C260.3,264.1,228.1,251.9,191.8,267.2z"/>
						</g>
						<path class="st22" d="M280,325.8l-57,26.3l-40.6-88.8c43.7-23.8,86.2-4.1,86.2-4.1l0.4,2.2v0c0,0-38.5-20.6-83.7,2.4
							l38.4,86.7l56.1-25.8L280,325.8z"/>
						<path class="st17" d="M280,325.8l-97.5-62.5c41-22.3,81-6.3,85.8-4.3l11.6,65.8L280,325.8z"/>
					</g>
					<g>
						<path class="st18" d="M374.7,229.7l0,0.1l-13.3,97.3c0,0-42.1-3.2-66.8-3.9l-0.1-0.9L284,257.6l-0.2-1.2
							C283.8,256.5,324.9,216.4,374.7,229.7z"/>
						<g>
							<path class="st20" d="M357.3,320.9l-56.5-2.2l-10.2-62.6l0.3-0.2c0.4-0.3,39.1-29.8,77-22.1l0.6,0.1L357.3,320.9z
								 M301.9,317.5l54.2,2.1l11-84.5c-35.4-6.9-71.4,18.9-75.1,21.7L301.9,317.5z"/>
						</g>
						<path class="st22" d="M374.7,229.7l-13.3,97.5c0,0-42.1-3.2-66.8-3.9l-0.1-0.9l66,3.2l12.8-95c-49.1-9.5-83.8,21.6-89.3,27
							l-0.2-1.2C283.8,256.5,324.9,216.4,374.7,229.7z"/>
						<path class="st17" d="M374.7,229.7l0,0.1l-80.2,92.6L284,257.6l-0.2-1.2C283.8,256.5,324.9,216.4,374.7,229.7z"/>
					</g>
				</g>
			</g>
			<g>
				<path class="st10" d="M374,285.6c0,0-13-8.5-14.6-6.9c-1.6,1.6,7.5,7.6,7.5,7.6s-10.4-2.7-11-0.3c-0.6,2.5,10.6,3.2,10.6,3.2
					s-10.1,2-9.8,3.5c0.3,1.6,9.3,0,9.3,0s-9,4.4-7.5,6c1.4,1.6,6.9-1.5,6.9-1.5S381.2,302.7,374,285.6z"/>
				<path class="st10" d="M199.5,315.3c0.7-1.5,2.2-2.6,3.3-3.8c1.7-1.8,3.5-3.5,5.3-5.2c1.7-1.5,4-4.1,6.3-4.7
					c0.3-0.1,0.7-0.2,1-0.1c2.6,1.1-9.6,12.9-9.6,12.9s11.7-8,13.9-6.1c2.3,1.9-12.8,8.9-12.8,8.9s12.6-3.5,13.6-2.4
					c1,1-11.5,5.9-11.5,5.9s10.1-0.9,10.7,0.7c0.7,1.6-10.7,3.3-10.7,3.3c-4.8,0.7-11.3-2.8-9.7-8.6
					C199.3,315.9,199.4,315.6,199.5,315.3z"/>
			</g>
		</g>
	</g>
	<g>
		<path class="st23" d="M420.6,334.9c-10.4,9.4-29.6,22.3-41.4,29.9"/>
		<path class="st23" d="M172,400c-7.5-0.2-15,0.2-21.7,3.4c-7.1,3.4-12.6,9.9-14.8,17.5c-2.6,8.9-0.5,18.6,4.1,26.6
			c4.6,8,11.6,14.3,19.3,19.6c15,10.3,32.7,16.4,50.7,18"/>
	</g>
	<path class="st24" d="M105.6,148.8c0,0,43.2-51.7,81.5-28.9c46.4,27.6-101.6,148.1-2.3,230.6"/>
	<g>
		<g>
			<g>
				<path class="st25" d="M70,235.2L68.5,223l8.7,8.4l13-5.8l-6.2,9.5c0,0,9,11.3,8.7,11.2c-0.4-0.1-12.8-4.5-12.8-4.5l-7.5,15.8
					l-0.5-14.8l-13.2,0.3L70,235.2z"/>
				<polygon class="st25" points="422.6,229 431.4,219.4 431.4,230.9 442.5,231.8 434.1,237.1 436.8,252.2 426.4,239.6 409.4,248.4 
					419.8,236 411.3,227.5 				"/>
				<path class="st25" d="M428.1,458l-1.1-13.6l7.6,11.2l8.9-5.6l-4.1,9.4c0,0,9.2,13,8.3,11.8c-1-1.2-12.1-6.3-12.1-6.3
					s-10.5,12.7-10.2,11.8c0.3-1,2.2-12.1,2.2-12.1l-12.7-2.5L428.1,458z"/>
				<polygon class="st25" points="97.1,282.2 100.5,276.6 97.8,270.6 104.2,272.1 109.1,267.7 109.6,274.2 115.3,277.5 109.2,280 
					107.9,286.5 103.6,281.5 				"/>
				<polygon class="st25" points="471.5,440.5 465.4,441.2 462.6,446.6 460,441 454,440 458.5,435.8 457.6,429.8 463,432.8 
					468.5,430.1 467.3,436.1 				"/>
			</g>
			<g>
				<g>
					<path class="st8" d="M159.4,506.4c0,5.8-4.7,10.5-10.5,10.5c-0.5,0-0.9,0-1.3-0.1c-5.2-0.7-9.2-5.1-9.2-10.4
						c0-5.4,4-9.8,9.2-10.4c0.4-0.1,0.9-0.1,1.3-0.1C154.7,495.9,159.4,500.6,159.4,506.4z"/>
					<g>
						<path class="st26" d="M142.8,503.9c-0.4,1-1.3,1.5-1.9,1.3c-0.6-0.3-0.8-1.3-0.4-2.2s1.3-1.5,1.9-1.3
							C143,501.9,143.2,502.9,142.8,503.9z"/>
						<path class="st26" d="M144.5,501.8c-0.2,0.3-0.5,0.4-0.7,0.3c-0.2-0.1-0.2-0.5,0-0.8c0.2-0.3,0.5-0.4,0.7-0.3
							C144.6,501.1,144.6,501.5,144.5,501.8z"/>
						<path class="st26" d="M143.9,499.4c-0.2,0.3-0.4,0.4-0.6,0.3c-0.2-0.1-0.2-0.4,0-0.7c0.2-0.3,0.4-0.4,0.6-0.3
							C144.1,498.9,144.1,499.2,143.9,499.4z"/>
					</g>
					<g>
						<path class="st27" d="M148.9,495.8c-0.5,0-0.9,0-1.3,0.1c2.7,0.3,5.1,1.7,6.7,3.7c0,0,0,0,0,0c-0.3,0.1-0.5,0.6-0.3,1.1
							c0.1,0.5,0.5,0.8,0.9,0.7c0.2-0.1,0.3-0.3,0.4-0.6c0.3,0.5,0.6,1.1,0.8,1.6c0,0-0.1,0-0.1,0c-0.5,0.1-0.7,0.8-0.5,1.5
							c0.2,0.7,0.7,1.1,1.2,1c0.1,0.5,0.1,0.9,0.1,1.4c0,0.8-0.1,1.6-0.3,2.3c-0.1-0.4-0.4-0.8-0.8-0.9c-0.7-0.2-1.4,0.5-1.7,1.5
							s0.1,2,0.8,2.2c0.2,0.1,0.5,0,0.7-0.1c-1.6,2.9-4.5,5-7.9,5.4c0.4,0.1,0.9,0.1,1.3,0.1c5.8,0,10.5-4.7,10.5-10.5
							C159.4,500.5,154.7,495.8,148.9,495.8z"/>
						<path class="st27" d="M154,502.8c0.2,0,0.2-0.3,0.2-0.5c-0.1-0.2-0.3-0.4-0.4-0.3c-0.2,0-0.2,0.3-0.2,0.5
							C153.7,502.7,153.9,502.9,154,502.8z"/>
						<path class="st27" d="M152.7,511.7c0.2-0.4,0.2-0.9-0.1-1.1c-0.3-0.2-0.7,0.1-0.9,0.5c-0.2,0.4-0.2,0.9,0.1,1.1
							C152,512.4,152.5,512.1,152.7,511.7z"/>
					</g>
				</g>
				<g>
					<path class="st28" d="M351.7,131.7c-0.2,0.5-0.4,1-0.7,1.5c-0.3,0.5-0.6,1.1-1,1.6c-0.9,1.2-1.8,2.3-2.9,3.2
						c-0.4,0.4-0.9,0.7-1.4,1c-4.2,2.7-9.5,3.4-14.3,1.5c-1.1-0.4-2.2-1-3.3-1.7c-5.5-3.8-7.8-10.4-6.4-16.5
						c0.1-0.6,0.3-1.1,0.5-1.7c0.4-1.3,1.1-2.5,1.9-3.7c0.3-0.5,0.6-0.9,1-1.3c0.4-0.4,0.7-0.8,1.1-1.2c4.9-4.7,12.5-5.7,18.5-2.3
						c0.4,0.2,0.8,0.5,1.2,0.8C352.2,117.2,354.4,125,351.7,131.7z"/>
					<g>
						<path class="st11" d="M344.1,131c0.3,0,0.5-0.3,0.5-0.7c0-0.3-0.3-0.6-0.6-0.6c-0.3,0-0.5,0.3-0.5,0.7
							C343.6,130.7,343.9,131,344.1,131z"/>
						<path class="st29" d="M326.5,117.3c0.4,0.2,0.8,0,1-0.5c0.2-0.4,0.1-0.9-0.3-1.1c-0.4-0.2-0.8,0-1,0.5
							C326,116.6,326.2,117.1,326.5,117.3z"/>
						<path class="st29" d="M327.5,115.2c0.1,0.1,0.3,0,0.4-0.2c0.1-0.2,0-0.4-0.1-0.4c-0.1-0.1-0.3,0-0.4,0.2
							C327.4,114.9,327.4,115.1,327.5,115.2z"/>
						<path class="st29" d="M326.8,119.6c0.2,0.1,0.7-0.2,0.9-0.7c0.3-0.5,0.3-1,0-1.1c-0.2-0.1-0.7,0.2-0.9,0.7
							C326.6,119,326.6,119.5,326.8,119.6z"/>
						<path class="st11" d="M346.3,127.1c0.3,0,0.5-0.3,0.5-0.7c0-0.3-0.3-0.6-0.6-0.6c-0.3,0-0.5,0.3-0.5,0.7
							C345.7,126.8,346,127.1,346.3,127.1z"/>
						<path class="st11" d="M344.6,133.8c0.3-0.5,0.2-1.1-0.2-1.3c-0.4-0.3-1-0.1-1.3,0.4c-0.3,0.5-0.2,1.1,0.2,1.3
							C343.7,134.5,344.3,134.3,344.6,133.8z"/>
						<path class="st11" d="M346,112.9c-0.4-0.3-0.8-0.5-1.2-0.8c2.4,2.9,3.9,6.6,4,10.6c-0.2-0.2-0.5-0.3-0.8-0.3
							c-0.7,0.1-1.3,0.8-1.2,1.7c0.1,0.9,0.7,1.5,1.4,1.5c0.2,0,0.3-0.1,0.4-0.1c0,0.3-0.1,0.6-0.1,0.9c-0.1,0-0.1-0.1-0.2-0.1
							c-0.6-0.1-1.2,0.4-1.3,1.2c-0.1,0.7,0.3,1.4,0.8,1.5c-0.2,0.5-0.4,1-0.6,1.4c-0.1-0.1-0.1-0.2-0.2-0.2c-0.4-0.3-1-0.1-1.3,0.4
							c-0.3,0.5-0.2,1.1,0.2,1.3c0.1,0.1,0.3,0.1,0.4,0.1c-3,5-8.5,8.4-14.8,8.4h-0.1c4.7,1.8,10.1,1.2,14.3-1.5
							c0.5-0.3,1-0.7,1.4-1c1.1-0.9,2.1-2,2.9-3.2c0.4-0.5,0.7-1.1,1-1.6c0.3-0.5,0.5-1,0.7-1.5C354.4,125,352.2,117.2,346,112.9z"
							/>
					</g>
					<path class="st25" d="M352.6,132.6c-0.3-0.3-0.6-0.6-0.9-1c-0.2,0.5-0.4,1-0.7,1.5c0.2,0.2,0.3,0.3,0.5,0.5
						c3.3,3.6,3.6,5.3,3.3,5.8c-0.3,0.5-2.1,0.8-6.6-1c-0.4-0.1-0.7-0.3-1.1-0.5c-3.8-1.6-8.3-4.2-12.7-7.3
						c-4.9-3.4-9.2-7-12.1-10.1c0,0,0,0-0.1-0.1c-3.3-3.6-3.6-5.3-3.3-5.8c0.1-0.2,0.5-0.4,1.2-0.4c1,0,2.6,0.3,5,1.3
						c0.4-0.4,0.7-0.8,1.1-1.2c-0.1,0-0.1-0.1-0.2-0.1c-4.6-1.8-7.4-2-8.4-0.5c-1,1.5,0.1,4.1,3.4,7.7c0.2,0.2,0.5,0.5,0.7,0.7
						c3,3.1,7.1,6.5,11.7,9.7c4.2,2.9,8.5,5.4,12.2,7.1c0.7,0.3,1.3,0.6,2,0.8c2.5,1,4.5,1.5,5.9,1.5c1.2,0,2-0.3,2.5-1
						C357.1,138.8,356,136.2,352.6,132.6z"/>
				</g>
			</g>
			<g>
				<g>
					<polygon class="st30" points="96.7,130.3 112,152.3 77,181.5 77,180.7 					"/>
					<polygon class="st0" points="77,180.7 122.4,132.5 102.5,133 					"/>
					<polygon class="st0" points="77,180.7 81.5,116.7 96.7,130.3 					"/>
				</g>
				<g>
					<g>
						<g>
							<path class="st30" d="M469.7,272.9L450,284l15.6,23.9l4.7-2.6l2.3-3.5C472.6,301.8,473.7,288.8,469.7,272.9z"/>
							<path class="st0" d="M469.7,272.9c0,0,9,29.3,1.4,37.5c-7.6,8.2-10.2-0.2-10.2-0.2l-0.2-1l-4.1-22.2l-22.2-12.8l17.4-14.9
								l1.1-1c0,0,17.9,27.1,17.5,47.1C470.4,305.4,474.5,296.6,469.7,272.9z"/>
							<path class="st14" d="M465.8,306.9c-0.9,2.6-2.8,3.1-5.1,2.2l-4.1-22.2l-22.2-12.8l17.4-14.9l0,0
								C451.7,259.2,470.2,294.4,465.8,306.9z"/>
							<path class="st30" d="M465,309.1c0.2-0.2,5.5-6.8,1.5-20.9c0,0,5,15.6,0.4,23.6C462.4,319.7,465,309.1,465,309.1z"/>
						</g>
						<g>
							<g>
								<path class="st31" d="M472.3,308.6c-0.2,1-1.5,2.5-3.6,4.4c-0.6,0.5-1.2,1.1-1.9,1.6c-7,5.9-18.9,13.8-24.5,17.5
									c-0.6,0.4-1.1,0.7-1.5,1c-1,0.6-1.6,1-1.6,1c-5.8,1.4-6.2-5-6.2-5l2.6-2l1.7-1.3l23.8-18.2l1.4-1.1l3.4-2.6
									c0,0,1.6,5.7,3.6,6.4C470.9,310.7,472.2,308.8,472.3,308.6z"/>
								<path class="st18" d="M468.8,313c-0.6,0.5-1.2,1.1-1.9,1.6c-3.3-1.4-4.9-4.8-5.7-7l1.4-1.1C464.6,310.6,467,312.3,468.8,313
									z"/>
								<path class="st18" d="M442.4,332.1c-0.6,0.4-1.1,0.7-1.5,1c-3.5-1.3-4.8-4.3-5.2-6l1.7-1.3
									C437.6,329.2,440.6,331.2,442.4,332.1z"/>
							</g>
							<g>
								<path class="st32" d="M466,303.9c0,0-9.3-35.9-37.1-40.1c-1.1-0.2-31.7,40-31.7,40s24.7,9.4,36,25.2L466,303.9z"/>
								<path class="st31" d="M433.5,326.9l30.2-23.8c0,0-7.2-27.7-34.2-37.4l-28.6,36.8C400.8,302.5,422.9,309.5,433.5,326.9z"/>
							</g>
						</g>
					</g>
					<g>
						<g>
							<path class="st30" d="M437.2,143.3l-1.8-1.3c0,0-5.6,3.2-7.8,5.9l-5.5-5.1c0,0-9.1,11.7-3.4,30.6l-1,1c0,0-10.1-12.2-21.9-9
								l39.6,25.4l17.3-33.3L437.2,143.3z"/>
							<path class="st0" d="M446.2,145.5c-0.4,0-7.3-3.5-7.3-3.5s-17.1,12.3-18.9,30.9c0,0-1.6-19.2,15.4-30.9
								c0,0-16.4,6.6-16.5,30.9c0,0-5-14.9,3.2-30.1c0,0-8.8,12.1-4.1,31c0,0-9.1-11.7-22.3-8.5c0,0,15.1-0.5,21.5,9.6
								c0,0-13.8-9.4-23-3.8l23.5,9.7l9.1-4.8L446.2,145.5z"/>
						</g>
						<g>
							<g>
								<path class="st28" d="M421.2,174.9c0,0,4.4-23.2,23.7-32.1l36.5,19.8c0,0-22.6,24.6-25.1,33.2L421.2,174.9z"/>
								<path class="st11" d="M424.1,171.9c0,0,8.3-21.7,20.9-27.1l32.9,18.5c0,0-16.9,14.7-22.7,28.3L424.1,171.9z"/>
							</g>
							<g>
								<polygon class="st28" points="416.1,176.1 390.1,170.2 437.5,196.4 452.5,199 								"/>
								<polygon class="st11" points="416.1,177.1 397.8,173.4 437.1,195.1 447.3,196.9 								"/>
							</g>
							<g>
								<path class="st33" d="M452.5,199l-5.2-3.3l-1.2-0.7c0,0,0,0,0,0l-24-15.1l-0.6-0.4l-5-3.1c1.9,0.6,4.8-3,4.8-3l3.2,2
									l0.8,0.5l24.6,15.1l0.8,0.5l5.6,3.4C457.5,200.1,452.5,199,452.5,199z"/>
								<path class="st32" d="M450.9,191.4c-0.2,1.1-0.9,3.6-3.6,4.4l-1.2-0.7c0.9-0.4,3.3-1.7,3.9-4.1L450.9,191.4z"/>
								<path class="st32" d="M425.5,175.8c-0.2,1.4-1,3.2-3.3,4.1l-0.6-0.4c1.2-0.5,2.7-1.6,3.1-4.2L425.5,175.8z"/>
							</g>
						</g>
					</g>
				</g>
			</g>
			<g>
				<path class="st0" d="M488.7,191.4C488.6,191.4,488.6,191.4,488.7,191.4c-1.3-1.3-3.8-0.5-3.7,1.4c0.1,1.8,2.2,2.8,3.6,1.5
					c0,0,0.1-0.1,0.1-0.1C489.4,193.5,489.4,192.2,488.7,191.4z"/>
				<path class="st0" d="M483.5,202.3c0.1-1.2-0.6-2.3-1.5-3.1c-1.5-1.2-3.6-1-5,0.3c-0.5,0.5-0.9,1.2-1.1,1.9
					c-0.4,1.7,0.5,3.6,2.1,4.2c0.1,0,0.2,0.1,0.2,0.2c1.1,0.6,2.6,0.5,3.5-0.5c0.2-0.2,0.3-0.4,0.5-0.6
					C483,204.2,483.5,203.3,483.5,202.3z"/>
				<path class="st0" d="M494.4,205.7c-3.1,0-3.1,4.9,0,4.9C497.5,210.5,497.5,205.7,494.4,205.7z"/>
				<path class="st0" d="M494,225.2c-2.1,0-2.1,3.3,0,3.3C496.1,228.4,496.1,225.2,494,225.2z"/>
				<path class="st0" d="M77.7,348.4c-1.3,0.8,0,2.8,1.3,2C80.3,349.6,79,347.6,77.7,348.4z"/>
				<path class="st0" d="M71.7,365.8c-2.6,1.6-3.6,5.5-1.8,8c1.8,2.6,5.3,3.5,8,1.8c2.6-1.6,3.6-5.5,1.8-8
					C77.9,365,74.4,364.1,71.7,365.8z"/>
				<path class="st0" d="M104,386.8c-0.1,0-0.1-0.1-0.2-0.1c-1.8-1.1-4.4,0.6-4.1,2.6c0,0.1,0,0.2,0,0.2c0.1,1,0.6,2.1,1.6,2.5
					l0.2,0.1c2.1,0.8,3.9-0.4,4.1-2.6l0-0.2C105.7,388.2,104.9,387.3,104,386.8z"/>
			</g>
		</g>
		<g>
			<path class="st0" d="M106.2,550.8c-1.2,0-2.4,1.1-2.4,2.4c0.1,1.3,1,2.4,2.4,2.4c1.2,0,2.4-1.1,2.4-2.4
				C108.6,551.9,107.6,550.8,106.2,550.8z"/>
			<path class="st0" d="M115.1,528c-2.6,0-5.2,2.3-5,5c0.1,2.7,2.2,5,5,5c2.6,0,5.2-2.3,5-5C120,530.3,118,528,115.1,528z"/>
			<path class="st0" d="M95,534.8c-3.7,0-3.7,5.8,0,5.8C98.7,540.7,98.7,534.8,95,534.8z"/>
		</g>
	</g>
</g>
</svg>
