<?xml version="1.0" encoding="utf-8"?>
<!-- Generator: Adobe Illustrator 24.0.1, SVG Export Plug-In . SVG Version: 6.00 Build 0)  -->
<svg version="1.1" id="Camada_1" xmlns="http://www.w3.org/2000/svg" xmlns:xlink="http://www.w3.org/1999/xlink" x="240px" y="74px"
	 viewBox="0 0 240 74" style="enable-background:new 0 0 240 74;" xml:space="preserve">
<style type="text/css">
	.st0{fill:#FFD666;}
	.st1{fill:#FFFFFF;}
	.st2{fill:#29B6D1;}
</style>
<g>
	<path class="st0" d="M16,4.7v6.6c0,2.6-2.1,4.7-4.7,4.7h-0.5l-2.4,2.4c-0.1,0.1-0.2,0.2-0.4,0.2c-0.1,0-0.3,0-0.4-0.1l0,0l0,0
		L5.2,16H4.7C2.1,16,0,13.9,0,11.3V4.7C0,2.1,2.1,0,4.7,0h6.6C13.9,0,16,2.1,16,4.7z"/>
	<g>
		<path class="st1" d="M25.1,5.4c0.3-0.3,0.8-0.5,1.2-0.5c0.7,0,1.3,0.5,1.3,1.2c0,0.3-0.1,0.5-0.3,0.7S27,7,26.4,7.2
			c-1.1,0.4-1.8,1-1.8,1.6v3.7c0,0.7-0.6,1.2-1.2,1.2c-0.7,0-1.2-0.5-1.2-1.2V6.1c0-0.7,0.6-1.2,1.3-1.2c0.3,0,0.7,0.4,1.2,1
			C24.8,5.7,25,5.5,25.1,5.4z"/>
		<path class="st1" d="M30.5,10.9c0.3,0.4,0.9,0.7,1.6,0.7c0.5,0,1.1-0.2,1.6-0.4c0.6-0.3,0.7-0.4,1-0.4c0.6,0,1.1,0.4,1.1,1
			c0,1-1.8,2-3.8,2c-2.6,0-4.5-1.8-4.5-4.4s1.8-4.5,4.3-4.5c2.3,0,4.2,1.9,4.2,4.2c0,0.7-0.3,1-1.1,1h-4.7
			C30.2,10.5,30.3,10.8,30.5,10.9z M30,8.5h3.4c-0.2-1.1-0.8-1.7-1.7-1.7C30.9,6.8,30.2,7.4,30,8.5z"/>
		<path class="st1" d="M43.6,4.9c0.7,0,1.2,0.5,1.2,1.1v6.7c0,0.6-0.5,1.1-1.2,1.1c-0.3,0-0.7-0.4-1.2-1c-0.8,0.8-1.2,1-2.2,1
			c-2.2,0-3.9-1.9-3.9-4.4c0-2.5,1.7-4.5,3.9-4.5c0.9,0,1.3,0.2,2.2,0.9C42.9,5.2,43.3,4.9,43.6,4.9z M38.8,9.3
			c0,1.3,0.7,2.2,1.8,2.2c1,0,1.8-0.9,1.8-2.2c0-1.3-0.7-2.2-1.8-2.2C39.6,7.1,38.8,8,38.8,9.3z"/>
		<path class="st1" d="M51.8,2.4c0-0.7,0.6-1.2,1.2-1.2c0.7,0,1.2,0.6,1.2,1.2v10.2c0,0.7-0.5,1.2-1.2,1.2c-0.3,0-0.7-0.4-1.1-1
			c-0.8,0.8-1.2,1-2.2,1c-2.2,0-3.9-2-3.9-4.5c0-2.5,1.7-4.4,3.9-4.4c0.8,0,1.2,0.2,2,0.8V2.4z M48.3,9.3c0,1.3,0.7,2.2,1.8,2.2
			c1,0,1.8-0.9,1.8-2.2c0-1.3-0.7-2.2-1.8-2.2C49,7.1,48.3,8.1,48.3,9.3z"/>
	</g>
	<g>
		<path class="st2" d="M5.4,10.8h6c0,0,0,0,0.1,0c0,0,0,0,0,0c0.1,0,0.2-0.1,0.2-0.2V4c0-0.1-0.1-0.2-0.2-0.2h-0.1H5.8H5.4
			c-0.6,0-1.1,0.5-1.1,1.1c0,0,0,0,0,0c0,0.6,0,5.8,0,6.5c0,0,0,0,0,0c0,0.6,0.5,1.1,1,1.1c0,0,0,0,0,0h6.1c0.1,0,0.2-0.1,0.2-0.2
			v-0.9c0-0.1-0.1-0.2-0.2-0.2c-0.1,0-0.2,0.1-0.2,0.2v0.6H5.4c-0.4,0-0.6-0.3-0.7-0.6c0,0,0,0,0,0c0,0,0,0,0,0
			C4.8,11.1,5.1,10.8,5.4,10.8z M5.6,4.9c0-0.1,0.1-0.2,0.2-0.2c0.1,0,0.2,0.1,0.2,0.2v4.7c0,0.1-0.1,0.2-0.2,0.2
			c-0.1,0-0.2-0.1-0.2-0.2C5.6,9.6,5.6,4.9,5.6,4.9z"/>
	</g>
</g>
</svg>
