<?xml version="1.0" encoding="utf-8"?>
<!-- Generator: Adobe Illustrator 24.0.1, SVG Export Plug-In . SVG Version: 6.00 Build 0)  -->
<svg version="1.1" id="Camada_1" xmlns="http://www.w3.org/2000/svg" xmlns:xlink="http://www.w3.org/1999/xlink" width="64" height="72"
	 viewBox="0 0 64 72" style="enable-background:new 0 0 64 72;" xml:space="preserve">
<style type="text/css">
	.st0{fill:#FFD666;}
	.st1{fill:#FFFFFF;}
</style>
<path class="st0" d="M64,18.3v25.4C64,53.8,55.6,62,45.1,62h-1.9l-9.7,9.4C33.1,71.8,32.6,72,32,72c-0.5,0-1-0.2-1.4-0.5l-0.2-0.2
	l0,0L20.8,62h-1.9C8.4,62,0,53.8,0,43.7V18.3C0,8.2,8.4,0,18.9,0h26.3C55.6,0,64,8.2,64,18.3z"/>
<g>
	<path class="st1" d="M21.5,41.8h24.3c0,0,0,0,0.4,0l0,0c0.4,0,0.8-0.4,0.8-0.8V14.2c0-0.4-0.4-0.8-0.8-0.8h-0.4H23.1h-1.6
		c-2.4,0-4.5,2-4.5,4.5l0,0c0,2.4,0,23.5,0,26.4l0,0c0,2.4,2,4.5,4.1,4.5l0,0h24.8c0.4,0,0.8-0.4,0.8-0.8v-3.7
		c0-0.4-0.4-0.8-0.8-0.8c-0.4,0-0.8,0.4-0.8,0.8v2.4H21.5c-1.6,0-2.4-1.2-2.8-2.4l0,0l0,0C19,43,20.2,41.8,21.5,41.8z M22.3,17.8
		c0-0.4,0.4-0.8,0.8-0.8c0.4,0,0.8,0.4,0.8,0.8v19.1c0,0.4-0.4,0.8-0.8,0.8c-0.4,0-0.8-0.4-0.8-0.8V17.8z"/>
</g>
</svg>
